HIERARCHY
ROOT root
{
	OFFSET 0.000000 0.000000 0.000000
	CHANNELS 6 Xposition Yposition Zposition Zrotation Yrotation Xrotation
	JOINT lhip
	{
		OFFSET 0.058581 -0.082280 -0.017664
		CHANNELS 3 Zrotation Yrotation Xrotation
		JOINT lknee
		{
			OFFSET 0.043451 -0.386469 0.008037
			CHANNELS 3 Zrotation Yrotation Xrotation
			JOINT lankle
			{
				OFFSET -0.014790 -0.426874 -0.037428
				CHANNELS 3 Zrotation Yrotation Xrotation
				JOINT ltoe
				{
					OFFSET 0.041054 -0.060286 0.122042
					CHANNELS 3 Zrotation Yrotation Xrotation
					End Site
					{
						OFFSET 0.000000 0.000000 0.000000
					}
				}
			}
		}
	}
	JOINT rhip
	{
		OFFSET -0.060310 -0.090513 -0.013543
		CHANNELS 3 Zrotation Yrotation Xrotation
		JOINT rknee
		{
			OFFSET -0.043257 -0.383688 -0.004843
			CHANNELS 3 Zrotation Yrotation Xrotation
			JOINT rankle
			{
				OFFSET 0.019056 -0.420046 -0.034562
				CHANNELS 3 Zrotation Yrotation Xrotation
				JOINT rtoe
				{
					OFFSET -0.034840 -0.062106 0.130323
					CHANNELS 3 Zrotation Yrotation Xrotation
					End Site
					{
						OFFSET 0.000000 0.000000 0.000000
					}
				}
			}
		}
	}
	JOINT lowerback
	{
		OFFSET 0.004439 0.124404 -0.038385
		CHANNELS 3 Zrotation Yrotation Xrotation
		JOINT upperback
		{
			OFFSET 0.004488 0.137956 0.026820
			CHANNELS 3 Zrotation Yrotation Xrotation
			JOINT chest
			{
				OFFSET -0.002265 0.056032 0.002855
				CHANNELS 3 Zrotation Yrotation Xrotation
				JOINT lowerneck
				{
					OFFSET -0.013390 0.211636 -0.033468
					CHANNELS 3 Zrotation Yrotation Xrotation
					JOINT upperneck
					{
						OFFSET 0.010113 0.088937 0.050410
						CHANNELS 3 Zrotation Yrotation Xrotation
						End Site
						{
							OFFSET 0.000000 0.000000 0.000000
						}
					}
				}
				JOINT lclavicle
				{
					OFFSET 0.071702 0.114000 -0.018898
					CHANNELS 3 Zrotation Yrotation Xrotation
					JOINT lshoulder
					{
						OFFSET 0.122921 0.045205 -0.019046
						CHANNELS 3 Zrotation Yrotation Xrotation
						JOINT lelbow
						{
							OFFSET 0.255332 -0.015649 -0.022946
							CHANNELS 3 Zrotation Yrotation Xrotation
							JOINT lwrist
							{
								OFFSET 0.265709 0.012698 -0.007375
								CHANNELS 3 Zrotation Yrotation Xrotation
								End Site
								{
									OFFSET 0.000000 0.000000 0.000000
								}
							}
						}
					}
				}
				JOINT rclavicle
				{
					OFFSET -0.082954 0.112472 -0.023707
					CHANNELS 3 Zrotation Yrotation Xrotation
					JOINT rshoulder
					{
						OFFSET -0.113228 0.046853 -0.008472
						CHANNELS 3 Zrotation Yrotation Xrotation
						JOINT relbow
						{
							OFFSET -0.260127 -0.014369 -0.031269
							CHANNELS 3 Zrotation Yrotation Xrotation
							JOINT rwrist
							{
								OFFSET -0.269108 0.006794 -0.006027
								CHANNELS 3 Zrotation Yrotation Xrotation
								End Site
								{
									OFFSET 0.000000 0.000000 0.000000
								}
							}
						}
					}
				}
			}
		}
	}
}
MOTION
Frames: 16
Frame Time: 0.033333
0.891986 0.659427 0.889128 -53.469326 3.240392 104.209307 11.825458 -6.751297 -62.842873 -5.204660 3.622719 55.039228 4.814654 1.923778 -18.298565 0.000000 -0.000000 0.000000 1.161896 8.649027 -50.663426 -1.173769 -13.799481 59.159169 -6.185909 -4.491046 -29.212436 0.000000 -0.000000 0.000000 -2.157675 4.864417 58.855982 0.673374 -4.803361 8.243194 4.775870 -1.254976 5.879269 -6.748180 4.267263 10.754931 17.943918 1.042682 -25.746162 -15.345757 -28.550718 -5.218151 -41.696697 -20.295658 0.643861 32.763525 -40.227039 -28.300367 18.098883 -5.093607 -2.417604 14.838030 30.646776 5.563888 53.121031 18.034112 0.436831 -52.814808 50.434843 -37.819000 -8.190162 9.282087 -10.124623 
0.881924 0.650803 0.888416 -53.859680 3.447105 104.027799 11.210224 -6.998457 -61.783622 -3.791623 3.306298 56.633209 3.031893 3.414908 -21.893077 0.000000 -0.000000 0.000000 1.742668 8.348819 -50.027623 -1.566069 -13.619594 60.521905 -5.428415 -3.571606 -29.544939 0.000000 -0.000000 0.000000 -1.862950 4.819418 59.292139 0.716156 -4.892266 7.793699 4.806294 -1.179940 5.910846 -6.022913 4.543043 10.753420 17.902070 1.037445 -25.613330 -15.116245 -28.867513 -5.513282 -42.168706 -20.341711 0.708109 32.241019 -39.734710 -27.561832 17.322614 -5.092471 -2.243378 14.743383 30.398598 5.273055 53.775769 17.281210 0.379886 -52.385492 50.237986 -37.073988 -7.697859 8.851853 -10.504636 
0.872036 0.642471 0.889190 -54.150674 3.316176 103.686342 11.154205 -7.510700 -60.961963 -3.936706 3.219221 57.307590 2.762008 3.936836 -22.411219 0.000000 -0.000000 0.000000 1.536212 7.647884 -49.928734 -1.608270 -13.889265 63.178173 -4.417485 -2.235155 -27.961596 0.000000 -0.000000 0.000000 -1.735401 4.908620 59.664909 0.934085 -5.134789 8.110222 4.768132 -1.111968 5.782149 -5.296522 4.840619 9.975812 18.162240 0.747975 -25.384074 -14.136911 -29.307279 -6.064272 -42.477999 -20.656501 1.039501 31.528265 -39.196449 -27.176408 17.657835 -4.955412 -2.489188 14.372132 30.130321 4.716821 54.634633 16.668214 0.545372 -52.048753 49.640311 -36.877567 -7.950097 8.885892 -10.609579 
0.862576 0.633158 0.890748 -54.496524 3.078878 103.409057 10.702928 -8.370743 -59.603070 -4.111227 2.877847 57.593939 3.286248 5.318323 -23.892837 0.000000 -0.000000 0.000000 0.378437 6.375109 -51.133208 -1.829672 -14.339938 67.661731 -1.991668 1.472104 -23.402987 0.000000 -0.000000 0.000000 -1.286828 4.718771 60.074520 1.110299 -5.562287 8.644997 4.553386 -1.130870 5.145688 -5.161459 5.244963 9.850958 18.091868 0.556099 -25.448052 -12.795601 -30.199822 -5.596137 -42.635838 -21.004840 0.361765 31.243648 -38.576965 -27.343694 16.845180 -4.905688 -2.438924 13.697059 30.065769 4.486676 55.800259 16.123434 0.313700 -51.146182 48.829144 -36.168089 -7.894467 8.937201 -10.851934 
0.853447 0.624104 0.891265 -54.983156 3.053053 103.677143 10.710113 -9.066628 -58.851427 -4.039222 2.905131 57.752413 4.194910 6.604614 -25.035598 0.000000 -0.000000 0.000000 -1.546950 5.232066 -54.117337 -1.190483 -14.742989 72.672420 1.420094 5.801340 -15.987434 0.000000 -0.000000 0.000000 -0.988929 4.228817 60.175136 1.226729 -5.464570 7.498929 4.055745 -1.116347 6.349439 -4.376386 6.411160 7.031233 18.641476 -0.204385 -24.559048 -11.246748 -29.627614 -7.604087 -43.847732 -21.877042 1.560479 30.336881 -37.835651 -26.639985 15.676739 -4.928564 -2.179387 13.424486 28.654095 2.876162 57.046070 15.519841 1.550709 -49.987604 47.788586 -35.123881 -7.111363 8.721199 -10.666009 
0.842145 0.616209 0.893515 -54.982363 3.781873 103.454002 10.588234 -8.907282 -57.554873 -4.076288 1.955523 58.281098 4.930190 7.478214 -26.051443 0.000000 -0.000000 0.000000 -2.257707 3.980167 -56.134451 -0.612140 -14.658144 75.423491 -1.974121 5.416732 -17.277376 0.000000 -0.000000 0.000000 -0.135063 3.438242 60.979617 1.406926 -5.088609 6.766475 4.058282 -1.027557 6.798993 -4.118640 6.852036 5.955611 19.024421 -0.202386 -24.603446 -11.041293 -30.006365 -8.351636 -43.564413 -21.841567 1.915749 29.879138 -38.108348 -25.995824 15.250096 -4.149890 -2.584484 13.865847 28.373934 2.688845 56.907362 14.311957 1.080222 -49.339994 47.335700 -34.469968 -5.678422 8.391685 -10.651899 
0.831154 0.609381 0.894405 -55.442091 4.160617 103.512173 10.253938 -8.520986 -56.827571 -4.398235 1.066539 59.249706 5.580128 8.754295 -27.059655 0.000000 -0.000000 0.000000 -3.378603 2.479802 -58.437970 -1.344111 -14.802096 75.014106 -9.435830 -0.786949 -23.180462 0.000000 -0.000000 0.000000 0.501290 2.994090 61.140542 1.191633 -4.624497 5.815367 4.109595 -1.184609 7.659064 -3.706458 6.655771 5.424791 19.535358 0.398058 -24.235552 -11.785111 -30.628982 -8.569545 -41.788827 -21.660658 2.201974 28.710516 -38.811769 -24.375764 15.777301 -3.460239 -3.454994 15.261059 28.305777 3.593934 55.893568 13.252707 0.448468 -48.544870 46.811129 -34.023246 -5.713943 8.149619 -10.555033 
0.818872 0.603430 0.895924 -56.242731 4.290105 103.534208 10.623397 -8.297907 -55.664680 -4.034997 1.887848 59.489079 4.837870 8.791811 -28.589786 0.000000 -0.000000 0.000000 -5.806138 1.342540 -60.030007 -2.765390 -16.436016 71.185931 2.365654 1.913420 -15.416118 0.000000 -0.000000 0.000000 0.125702 3.013921 61.494416 1.596789 -4.239678 5.800980 4.350288 -0.997201 7.291788 -3.503420 6.656572 6.237837 19.300678 0.567749 -25.069907 -11.491359 -30.598506 -6.625502 -40.957089 -22.726763 1.436642 29.051885 -39.210560 -25.180168 15.294220 -4.584931 -2.858216 15.016150 27.733579 3.432290 56.280715 12.487479 1.463864 -47.427716 45.574886 -33.696997 -4.967253 8.041367 -10.181487 
0.807759 0.597038 0.894766 -57.120019 4.225881 103.585083 10.410591 -8.117530 -54.918458 -3.404217 2.392010 60.296605 4.959399 9.133344 -29.834834 0.000000 -0.000000 0.000000 -7.357017 -0.750015 -61.706078 -3.722214 -17.421407 65.585904 3.103919 -0.494385 -14.454112 0.000000 -0.000000 0.000000 0.555744 2.783871 61.254711 1.433814 -4.235157 5.832662 4.240302 -1.230612 7.558941 -3.259282 6.645794 6.210394 19.439706 1.155499 -24.716933 -11.364442 -29.802383 -6.151112 -40.251765 -23.738801 1.002963 27.918955 -40.056485 -23.133131 15.320538 -4.900932 -3.113497 14.992915 26.855019 3.574698 56.399045 12.257118 2.022869 -45.989691 44.891215 -32.516912 -4.364140 7.862505 -10.877415 
0.795373 0.591405 0.891566 -58.298491 4.368662 103.548295 10.608328 -7.727550 -54.309529 -3.562491 2.780736 61.690665 5.245340 10.274732 -31.279377 0.000000 -0.000000 0.000000 -8.660889 -2.189860 -62.958087 -3.310406 -17.909731 58.680358 3.223579 -2.687135 -12.900668 0.000000 -0.000000 0.000000 0.847972 2.712734 60.672781 1.290359 -4.190560 6.306160 4.119719 -1.254336 7.494553 -3.437438 6.134115 6.951482 19.879180 1.852933 -24.547787 -11.168610 -29.207392 -5.356757 -39.754688 -24.410670 0.550200 27.121309 -40.708916 -21.789350 15.787640 -5.027027 -3.557720 14.953746 26.072234 4.121586 56.499342 11.982453 2.084580 -44.681210 44.741010 -31.391338 -3.975623 8.010220 -12.019088 
0.780604 0.585214 0.886449 -58.566418 4.483842 103.489474 10.563027 -7.986031 -53.951613 -3.069583 2.712939 63.934617 5.279262 10.706900 -33.121641 0.000000 -0.000000 0.000000 -9.723443 -3.798440 -63.501005 -2.435364 -17.994102 51.793939 3.160268 -3.332075 -10.660968 0.000000 -0.000000 0.000000 1.858771 2.138086 59.922129 1.425043 -4.472886 7.061603 4.075722 -1.453156 7.259147 -3.512797 5.404813 7.470318 19.993167 2.420282 -24.785735 -11.739584 -29.011511 -4.719391 -39.353052 -24.819744 0.367554 26.863883 -40.702688 -21.650919 15.355568 -5.354586 -3.309015 15.702027 25.193035 4.823412 55.631051 11.309963 1.958706 -44.299129 45.205965 -31.299404 -2.820490 7.461341 -12.156384 
0.763522 0.580556 0.880474 -59.322310 4.660125 103.247178 10.666407 -7.719120 -53.111924 -2.867220 2.816212 66.025559 5.238323 11.494909 -35.218697 0.000000 -0.000000 0.000000 -10.357290 -4.319811 -63.706932 -1.235566 -17.060693 45.630770 3.886238 -3.323223 -7.963074 0.000000 -0.000000 0.000000 2.199594 1.951584 59.545758 1.545008 -4.255175 7.060136 4.222305 -1.437336 7.165812 -3.348547 4.125728 8.305716 19.900840 3.173840 -24.504608 -12.912190 -28.950732 -3.954415 -38.869605 -24.930387 0.321593 26.259240 -40.240188 -21.375160 15.471168 -5.784163 -2.896638 16.463546 24.605845 5.466614 54.813735 10.140547 2.061871 -44.034294 45.328163 -31.321476 -2.075911 7.577433 -12.479408 
0.745618 0.576067 0.872108 -59.972912 3.518201 103.143993 9.755268 -8.416158 -52.396350 -2.777470 3.172971 68.046233 5.268376 12.846054 -37.252277 0.000000 -0.000000 0.000000 -12.153395 -5.337867 -64.160109 -0.219150 -16.164227 42.000695 5.185766 -2.611090 -6.249849 0.000000 -0.000000 0.000000 2.320428 2.245872 58.834391 1.751281 -4.831005 6.961622 4.295500 -1.958593 7.386499 -2.809796 3.939699 8.360065 19.952644 3.381391 -24.567378 -13.336717 -28.847325 -3.343210 -38.738881 -25.009714 0.417132 25.634946 -39.735934 -20.486408 15.966710 -5.527245 -3.634910 16.974229 23.488663 5.286785 54.651451 9.346405 2.536920 -43.729570 45.397978 -31.176299 -1.305151 7.415346 -13.192727 
0.724714 0.573098 0.864711 -60.381773 3.015560 102.725721 9.395791 -8.448883 -51.157366 -2.750498 3.146874 70.155124 5.108318 13.597540 -38.958284 0.000000 -0.000000 0.000000 -12.460880 -5.932614 -63.720820 0.042342 -15.739846 40.400084 5.761676 -2.691466 -4.417524 0.000000 -0.000000 0.000000 2.481519 2.285321 58.480361 2.102288 -5.029396 7.576199 4.435644 -2.106006 7.233099 -2.352581 3.360689 7.830009 19.958652 3.483012 -24.435070 -13.763297 -28.810490 -3.065918 -38.782155 -25.133459 0.414326 25.292655 -39.192241 -20.523816 16.244454 -5.190032 -3.418955 17.387834 22.876154 4.998267 54.273935 8.383508 2.669024 -44.161431 45.624902 -32.009508 -0.064936 6.954945 -13.317995 
0.700186 0.571392 0.858333 -60.559952 2.424354 101.944769 8.952933 -8.246243 -49.068866 -2.703716 2.855162 71.927054 5.175053 14.179085 -41.143225 0.000000 -0.000000 0.000000 -11.864403 -6.913168 -62.527648 -0.149005 -15.623597 41.203489 6.650637 -3.144520 -0.067412 0.000000 -0.000000 0.000000 2.238824 2.444090 58.379676 2.611179 -5.245266 9.076853 4.860306 -1.974397 6.150484 -2.230058 2.410418 7.831198 20.020430 3.742135 -24.514415 -14.549668 -29.256926 -2.420758 -38.142284 -24.702663 -0.386657 24.544179 -38.848196 -20.534841 16.157757 -5.408392 -2.865219 18.050340 22.880622 5.079642 53.624160 7.419695 1.969120 -44.484814 45.773374 -33.246861 0.683885 7.361188 -12.184327 
0.676867 0.572352 0.851645 -61.017673 2.038654 101.977502 8.916775 -7.729137 -47.817414 -2.588789 2.329181 73.365029 5.156376 14.816447 -42.820587 0.000000 -0.000000 0.000000 -10.899749 -7.489967 -63.979748 -0.145577 -14.742385 45.150480 4.879212 -2.350186 1.376714 0.000000 -0.000000 0.000000 2.055373 2.399769 58.302510 2.765332 -5.160623 8.639464 5.084412 -2.069848 6.013197 -2.195675 1.921121 7.802287 20.020379 3.672178 -24.584656 -15.008237 -29.653106 -1.721019 -37.786909 -23.603177 -1.157026 24.253318 -39.065609 -21.047964 15.795221 -5.251372 -1.826347 18.460756 23.048280 5.601533 53.183542 6.931952 1.066677 -44.085727 46.184293 -33.346993 0.575343 7.429175 -12.126162 
